<?xml version="1.0" encoding="utf-8"?>
<?xml-stylesheet type="text/xsl" href="rss1.xsl"?>
<rss version="2.0" xmlns:atom="http://www.w3.org/2005/Atom" xmlns:content="http://purl.org/rss/1.0/modules/content/" xmlns:dc="http://purl.org/dc/elements/1.1/" xmlns:media="http://search.yahoo.com/mrss/">
<channel>
 <title>sharemania</title>
 <link>http://www.sharemania.us/</link>
 <atom:link href="http://www.gettyimg.com/" rel="self" type="application/rss+xml" />

 
                <item>
                <title><![CDATA[【Requests】[REQ AUD] - if you have an apple music account please share these albums]]></title>
                <link><![CDATA[https://sharemania.us/threads/if-you-have-an-apple-music-account-please-share-these-albums.283476/]]></link>
                <description><![CDATA[<article>
				<blockquote class="messageText SelectQuoteContainer ugc baseHtml">
					
					<a href="https://music.apple.com/us/album/sangeetha-naade-vol-1-feat-nalin-perera/1524636927" target="_blank" class="externalLink" rel="nofollow">https://music.apple.com/us/album/sangeetha-naade-vol-1-feat-nalin-perera/1524636927</a><br>
<a href="https://music.apple.com/us/album/sangeetha-naade-vol-2-feat-nalin-perera/1524442741" target="_blank" class="externalLink" rel="nofollow">https://music.apple.com/us/album/sangeetha-naade-vol-2-feat-nalin-perera/1524442741</a><br>
<a href="https://music.apple.com/us/album/sangeetha-naade-vol-3-feat-nalin-perera/1524470172" target="_blank" class="externalLink" rel="nofollow">https://music.apple.com/us/album/sangeetha-naade-vol-3-feat-nalin-perera/1524470172</a><br>
<a href="https://music.apple.com/us/album/sangeetha-naade-vol-4-feat-nalin-perera-ishaq-baig/1767324691" target="_blank" class="externalLink" rel="nofollow">https://music.apple.com/us/album/sangeetha-naade-vol-4-feat-nalin-perera-ishaq-baig/1767324691</a><br>
<br>
thanks a ton!
					<div class="messageTextEndMarker">&nbsp;</div>
				</blockquote>
			</article>]]></description>
                <author><![CDATA[horapoosi]]></author>
                </item>

                
                <item>
                <title><![CDATA[【Albums (lossy)】360 RA - Miley Cyrus - Bangerz (Deluxe Version) [E] | [360RA MHM1 + WAV 22.2] 24bits/48kHz]]></title>
                <link><![CDATA[https://sharemania.us/threads/miley-cyrus-bangerz-deluxe-version-e-360ra-mhm1-wav-22-2-24bits-48khz.283477/]]></link>
                <description><![CDATA[<article>
				<blockquote class="messageText SelectQuoteContainer ugc baseHtml">
					
					<img src="https://i.ibb.co/vxgFpLtz/MCB360RA.png" class="bbCodeImage LbImage" alt="[​IMG]" data-url="https://i.ibb.co/vxgFpLtz/MCB360RA.png" style=""> <br>
<br>




<div class="bbCodeBlock bbCodeVfcHH HiddenContent">
	<div class="attribution type">Hidden Content:</div>
	<blockquote>You must reply before you can see the hidden data contained here.</blockquote>
</div>


<div class="ToggleTriggerAnchor bbCodeSpoilerContainer">
	<button type="button" class="button bbCodeSpoilerButton ToggleTrigger Tooltip JsOnly" data-target="&gt; .SpoilerTarget"><span>Spoiler: <span class="SpoilerTitle">Media Info</span></span></button>
	<div class="SpoilerTarget bbCodeSpoilerText">M4A MHM1:<br>


<div class="bbCodeBlock bbCodeCode">
	<div class="type">Code:</div>
	<pre>Audio
ID                          : 1
Format                      : MPEG-H 3D Audio
Format profile              : LC@L4, BL@L3
Codec ID                    : mhm1
Duration                    : 4 min 38 s
Bit rate                    : 1 604 kb/s
Channel(s)                  : 24 channels (22.2)
Channel layout              : Lw Rw C LFE Lb Rb L R Cb LFE2 Lss Rss Tfl Tfr Tfc Tc Tbl Tbr Tsl Tsr Tbc Bfc Bfl Bfr
Sampling rate               : 48.0 kHz
Frame rate                  : 46.875 FPS (1024 SPF)
Stream size                 : 53.3 MiB (99%)
Encoded date                : 2023-09-28 21:01:02 UTC
Tagged date                 : 2025-07-21 23:11:11 UTC
Program loudness            : -14.50 LKFS
Signal group #1             : 24 objects
 Type                       : Object
 Number of objects          : 24 objects
Codec configuration box     : mhaC</pre>
</div>WAV 22.2:<br>


<div class="bbCodeBlock bbCodeCode">
	<div class="type">Code:</div>
	<pre>Audio
Format                      : PCM
Format settings             : Little / Signed
Codec ID                    : 1
Duration                    : 4 min 38 s
Bit rate mode               : Constant
Bit rate                    : 27.6 Mb/s
Channel(s)                  : 24 channels
Sampling rate               : 48.0 kHz
Bit depth                   : 24 bits
Stream size                 : 919 MiB (100%)</pre>
</div></div>
</div>
					<div class="messageTextEndMarker">&nbsp;</div>
				</blockquote>
			</article>]]></description>
                <author><![CDATA[nikhoetine]]></author>
                </item>

                </channel></rss>